<svg width="94" height="103" viewBox="0 0 94 103" fill="none" xmlns="http://www.w3.org/2000/svg">
<path d="M33.8457 38.105C34.7111 28.055 39.8757 23.9512 51.182 23.9512H51.5449C64.0236 23.9512 69.0207 28.9483 69.0207 41.4271V59.6287C69.0207 72.1075 64.0236 77.1046 51.5449 77.1046H51.182C39.9595 77.1046 34.7949 73.0567 33.8736 63.1742" stroke="#5E6E9A" stroke-width="7" stroke-linecap="round" stroke-linejoin="round"/>
<path d="M14.583 50.5H50.5397" stroke="#5E6E9A" stroke-width="7" stroke-linecap="round" stroke-linejoin="round"/>
<path d="M44.3145 41.1479L53.6665 50.5L44.3145 59.8521" stroke="#5E6E9A" stroke-width="7" stroke-linecap="round" stroke-linejoin="round"/>
<path d="M90.3075 35.2552V67.745C90.3075 73.065 87.4575 78.0052 82.85 80.7127L54.635 97.0052C50.0275 99.6652 44.3275 99.6652 39.6725 97.0052L11.4575 80.7127C6.85 78.0527 4 73.1125 4 67.745V35.2552C4 29.9352 6.85 24.995 11.4575 22.2875L39.6725 5.995C44.28 3.335 49.98 3.335 54.635 5.995L82.85 22.2875C87.4575 24.995 90.3075 29.8877 90.3075 35.2552Z" stroke="#5E6E9A" stroke-width="7" stroke-linecap="round" stroke-linejoin="round"/>
</svg>
