<svg width="94" height="103" viewBox="0 0 94 103" fill="none" xmlns="http://www.w3.org/2000/svg">
<path d="M61.5205 76.5104H32.9788C24.4163 76.5104 18.708 72.2292 18.708 62.2396V42.2604C18.708 32.2708 24.4163 27.9896 32.9788 27.9896H61.5205C70.083 27.9896 75.7913 32.2708 75.7913 42.2604V62.2396C75.7913 72.2292 70.083 76.5104 61.5205 76.5104Z" stroke="#5E6E9A" stroke-width="7" stroke-miterlimit="10" stroke-linecap="round" stroke-linejoin="round"/>
<path d="M61.5212 43.6875L52.5876 50.8229C49.6478 53.1633 44.8243 53.1633 41.8845 50.8229L32.9795 43.6875" stroke="#5E6E9A" stroke-width="7" stroke-miterlimit="10" stroke-linecap="round" stroke-linejoin="round"/>
<path d="M90.3075 35.2552V67.745C90.3075 73.065 87.4575 78.0052 82.85 80.7127L54.635 97.0052C50.0275 99.6652 44.3275 99.6652 39.6725 97.0052L11.4575 80.7127C6.85 78.0527 4 73.1125 4 67.745V35.2552C4 29.9352 6.85 24.995 11.4575 22.2875L39.6725 5.995C44.28 3.335 49.98 3.335 54.635 5.995L82.85 22.2875C87.4575 24.995 90.3075 29.8877 90.3075 35.2552Z" stroke="#5E6E9A" stroke-width="7.125" stroke-linecap="round" stroke-linejoin="round"/>
</svg>
