<svg width="104" height="115" viewBox="0 0 104 115" fill="none" xmlns="http://www.w3.org/2000/svg">
<path d="M90.6814 40.7718V73.2749C90.6814 78.597 88.1004 83.5392 83.9277 86.2478L58.3753 102.547C54.2026 105.208 49.0404 105.208 44.8247 102.547L19.2723 86.2478C15.0996 83.5868 12.5186 78.6445 12.5186 73.2749V40.7718C12.5186 35.4496 15.0996 30.5074 19.2723 27.7988L44.8247 11.4997C48.9974 8.83857 54.1595 8.83857 58.3753 11.4997L83.9277 27.7988C88.1004 30.5074 90.6814 35.4021 90.6814 40.7718Z" stroke="#5E6E9A" stroke-width="8.40343" stroke-linecap="round" stroke-linejoin="round"/>
<path d="M51.6237 52.2713C57.1593 52.2713 61.6468 47.3141 61.6468 41.1992C61.6468 35.0843 57.1593 30.1274 51.6237 30.1274C46.0881 30.1274 41.6006 35.0843 41.6006 41.1992C41.6006 47.3141 46.0881 52.2713 51.6237 52.2713Z" stroke="#5E6E9A" stroke-width="8.40343" stroke-linecap="round" stroke-linejoin="round"/>
<path d="M68.8301 79.1671C68.8301 70.6136 61.1299 63.676 51.623 63.676C42.1162 63.676 34.416 70.6136 34.416 79.1671" stroke="#5E6E9A" stroke-width="8.40343" stroke-linecap="round" stroke-linejoin="round"/>
</svg>
