<svg width="94" height="103" viewBox="0 0 94 103" fill="none" xmlns="http://www.w3.org/2000/svg">
<path d="M90.3075 35.2552V67.745C90.3075 73.065 87.4575 78.0052 82.85 80.7127L54.635 97.0052C50.0275 99.6652 44.3275 99.6652 39.6725 97.0052L11.4575 80.7127C6.85 78.0527 4 73.1125 4 67.745V35.2552C4 29.9352 6.85 24.995 11.4575 22.2875L39.6725 5.995C44.28 3.335 49.98 3.335 54.635 5.995L82.85 22.2875C87.4575 24.995 90.3075 29.8877 90.3075 35.2552Z" stroke="#5E6E9A" stroke-width="7" stroke-linecap="round" stroke-linejoin="round"/>
<path d="M48.2497 74.5104H33.9788C25.4163 74.5104 19.708 70.2291 19.708 60.2396V40.2604C19.708 30.2708 25.4163 25.9896 33.9788 25.9896H62.5205C71.083 25.9896 76.7913 30.2708 76.7913 40.2604V48.8229" stroke="#5E6E9A" stroke-width="7" stroke-miterlimit="10" stroke-linecap="round" stroke-linejoin="round"/>
<path d="M62.5212 41.6875L53.5876 48.8229C50.6478 51.1633 45.8243 51.1633 42.8845 48.8229L33.9795 41.6875" stroke="#5E6E9A" stroke-width="7" stroke-miterlimit="10" stroke-linecap="round" stroke-linejoin="round"/>
<path d="M68.8291 58.1561L58.7254 68.2599C58.3259 68.6595 57.9548 69.4015 57.8691 69.9438L57.3268 73.797C57.1271 75.1955 58.0975 76.1659 59.496 75.9662L63.3492 75.4239C63.8915 75.3382 64.6621 74.9671 65.0331 74.5676L75.1369 64.4639C76.8779 62.7228 77.7057 60.6964 75.1369 58.1276C72.5967 55.5874 70.5702 56.4151 68.8291 58.1561Z" stroke="#5E6E9A" stroke-width="5" stroke-miterlimit="10" stroke-linecap="round" stroke-linejoin="round"/>
<path d="M67.3721 59.6117C68.2283 62.6942 70.6258 65.0917 73.7083 65.9479" stroke="#5E6E9A" stroke-width="5" stroke-miterlimit="10" stroke-linecap="round" stroke-linejoin="round"/>
</svg>
